<svg width="281" height="16" viewBox="0 0 281 16" fill="none" xmlns="http://www.w3.org/2000/svg">
<path d="M4.77273 12.1818C3.95455 12.1818 3.25 11.9886 2.65909 11.6023C2.06818 11.2159 1.61364 10.6837 1.29545 10.0057C0.977273 9.32765 0.818182 8.55303 0.818182 7.68182C0.818182 6.79545 0.981061 6.01326 1.30682 5.33523C1.63636 4.65341 2.0947 4.12121 2.68182 3.73864C3.27273 3.35227 3.96212 3.15909 4.75 3.15909C5.36364 3.15909 5.91667 3.27273 6.40909 3.5C6.90152 3.72727 7.30492 4.04545 7.61932 4.45455C7.93371 4.86364 8.12879 5.34091 8.20455 5.88636H6.86364C6.76136 5.48864 6.53409 5.13636 6.18182 4.82955C5.83333 4.51894 5.36364 4.36364 4.77273 4.36364C4.25 4.36364 3.79167 4.5 3.39773 4.77273C3.00758 5.04167 2.70265 5.42235 2.48295 5.91477C2.26705 6.40341 2.15909 6.97727 2.15909 7.63636C2.15909 8.31061 2.26515 8.89773 2.47727 9.39773C2.69318 9.89773 2.99621 10.286 3.38636 10.5625C3.7803 10.839 4.24242 10.9773 4.77273 10.9773C5.12121 10.9773 5.4375 10.9167 5.72159 10.7955C6.00568 10.6742 6.24621 10.5 6.44318 10.2727C6.64015 10.0455 6.7803 9.77273 6.86364 9.45455H8.20455C8.12879 9.9697 7.94129 10.4337 7.64205 10.8466C7.34659 11.2557 6.95455 11.5814 6.46591 11.8239C5.98106 12.0625 5.41667 12.1818 4.77273 12.1818ZM13.7102 12.1818C12.9223 12.1818 12.2311 11.9943 11.6364 11.6193C11.0455 11.2443 10.5833 10.7197 10.25 10.0455C9.92045 9.37121 9.75568 8.58333 9.75568 7.68182C9.75568 6.77273 9.92045 5.97917 10.25 5.30114C10.5833 4.62311 11.0455 4.09659 11.6364 3.72159C12.2311 3.34659 12.9223 3.15909 13.7102 3.15909C14.4981 3.15909 15.1875 3.34659 15.7784 3.72159C16.3731 4.09659 16.8352 4.62311 17.1648 5.30114C17.4981 5.97917 17.6648 6.77273 17.6648 7.68182C17.6648 8.58333 17.4981 9.37121 17.1648 10.0455C16.8352 10.7197 16.3731 11.2443 15.7784 11.6193C15.1875 11.9943 14.4981 12.1818 13.7102 12.1818ZM13.7102 10.9773C14.3087 10.9773 14.8011 10.8239 15.1875 10.517C15.5739 10.2102 15.8598 9.80682 16.0455 9.30682C16.2311 8.80682 16.3239 8.26515 16.3239 7.68182C16.3239 7.09848 16.2311 6.55492 16.0455 6.05114C15.8598 5.54735 15.5739 5.14015 15.1875 4.82955C14.8011 4.51894 14.3087 4.36364 13.7102 4.36364C13.1117 4.36364 12.6193 4.51894 12.233 4.82955C11.8466 5.14015 11.5606 5.54735 11.375 6.05114C11.1894 6.55492 11.0966 7.09848 11.0966 7.68182C11.0966 8.26515 11.1894 8.80682 11.375 9.30682C11.5606 9.80682 11.8466 10.2102 12.233 10.517C12.6193 10.8239 13.1117 10.9773 13.7102 10.9773ZM19.7116 15.2727V3.27273H21.0071V4.65909H21.1662C21.2647 4.50758 21.401 4.31439 21.5753 4.07955C21.7533 3.84091 22.0071 3.62879 22.3366 3.44318C22.67 3.25379 23.1207 3.15909 23.6889 3.15909C24.4238 3.15909 25.0715 3.3428 25.6321 3.71023C26.1927 4.07765 26.6302 4.59848 26.9446 5.27273C27.259 5.94697 27.4162 6.74242 27.4162 7.65909C27.4162 8.58333 27.259 9.38447 26.9446 10.0625C26.6302 10.7367 26.1946 11.2595 25.6378 11.6307C25.081 11.9981 24.4389 12.1818 23.7116 12.1818C23.151 12.1818 22.7022 12.089 22.3651 11.9034C22.0279 11.714 21.7685 11.5 21.5866 11.2614C21.4048 11.0189 21.2647 10.8182 21.1662 10.6591H21.0526V15.2727H19.7116ZM21.0298 7.63636C21.0298 8.29545 21.1264 8.87689 21.3196 9.38068C21.5128 9.88068 21.795 10.2727 22.1662 10.5568C22.5374 10.8371 22.992 10.9773 23.5298 10.9773C24.0904 10.9773 24.5582 10.8295 24.9332 10.5341C25.312 10.2348 25.5961 9.83333 25.7855 9.32955C25.9787 8.82197 26.0753 8.25758 26.0753 7.63636C26.0753 7.02273 25.9806 6.4697 25.7912 5.97727C25.6056 5.48106 25.3234 5.08902 24.9446 4.80114C24.5696 4.50947 24.098 4.36364 23.5298 4.36364C22.9844 4.36364 22.526 4.50189 22.1548 4.77841C21.7836 5.05114 21.5033 5.43371 21.3139 5.92614C21.1245 6.41477 21.0298 6.98485 21.0298 7.63636ZM30.0128 15.2727C29.7855 15.2727 29.5829 15.2538 29.4048 15.2159C29.2268 15.1818 29.1037 15.1477 29.0355 15.1136L29.3764 13.9318C29.7022 14.0152 29.9901 14.0455 30.2401 14.0227C30.4901 14 30.7116 13.8883 30.9048 13.6875C31.1018 13.4905 31.2817 13.1705 31.4446 12.7273L31.6946 12.0455L28.4673 3.27273H29.9219L32.331 10.2273H32.4219L34.831 3.27273H36.2855L32.581 13.2727C32.4143 13.7235 32.2079 14.0966 31.9616 14.392C31.7154 14.6913 31.4295 14.9129 31.1037 15.0568C30.7817 15.2008 30.4181 15.2727 30.0128 15.2727ZM38.0554 12V3.27273H39.3509V4.59091H39.4418C39.6009 4.15909 39.8887 3.80871 40.3054 3.53977C40.7221 3.27083 41.1918 3.13636 41.7145 3.13636C41.813 3.13636 41.9361 3.13826 42.0838 3.14205C42.2315 3.14583 42.3433 3.15152 42.419 3.15909V4.52273C42.3736 4.51136 42.2694 4.49432 42.1065 4.47159C41.9474 4.44508 41.7789 4.43182 41.6009 4.43182C41.1766 4.43182 40.7978 4.52083 40.4645 4.69886C40.1349 4.87311 39.8736 5.11553 39.6804 5.42614C39.491 5.73295 39.3963 6.08333 39.3963 6.47727V12H38.0554ZM44.0085 12V3.27273H45.3494V12H44.0085ZM44.6903 1.81818C44.429 1.81818 44.2036 1.72917 44.0142 1.55114C43.8286 1.37311 43.7358 1.15909 43.7358 0.909091C43.7358 0.659091 43.8286 0.445076 44.0142 0.267045C44.2036 0.089015 44.429 0 44.6903 0C44.9517 0 45.1752 0.089015 45.3608 0.267045C45.5502 0.445076 45.6449 0.659091 45.6449 0.909091C45.6449 1.15909 45.5502 1.37311 45.3608 1.55114C45.1752 1.72917 44.9517 1.81818 44.6903 1.81818ZM51.3281 15.4545C50.6804 15.4545 50.1236 15.3712 49.6577 15.2045C49.1918 15.0417 48.8035 14.8258 48.4929 14.5568C48.1861 14.2917 47.9418 14.0076 47.7599 13.7045L48.8281 12.9545C48.9493 13.1136 49.1027 13.2955 49.2884 13.5C49.474 13.7083 49.7277 13.8883 50.0497 14.0398C50.3755 14.1951 50.8016 14.2727 51.3281 14.2727C52.0327 14.2727 52.6141 14.1023 53.0724 13.7614C53.5308 13.4205 53.7599 12.8864 53.7599 12.1591V10.3864H53.6463C53.5478 10.5455 53.4077 10.7424 53.2259 10.9773C53.0478 11.2083 52.7902 11.4148 52.4531 11.5966C52.1198 11.7746 51.669 11.8636 51.1009 11.8636C50.3963 11.8636 49.7637 11.697 49.2031 11.3636C48.6463 11.0303 48.205 10.5455 47.8793 9.90909C47.5573 9.27273 47.3963 8.5 47.3963 7.59091C47.3963 6.69697 47.5535 5.91856 47.8679 5.25568C48.1823 4.58901 48.6198 4.07386 49.1804 3.71023C49.741 3.3428 50.3887 3.15909 51.1236 3.15909C51.6918 3.15909 52.1425 3.25379 52.4759 3.44318C52.813 3.62879 53.0705 3.84091 53.2486 4.07955C53.4304 4.31439 53.5705 4.50758 53.669 4.65909H53.8054V3.27273H55.1009V12.25C55.1009 13 54.9304 13.6098 54.5895 14.0795C54.2524 14.553 53.7978 14.8996 53.2259 15.1193C52.6577 15.3428 52.0251 15.4545 51.3281 15.4545ZM51.2827 10.6591C51.8205 10.6591 52.2751 10.536 52.6463 10.2898C53.0175 10.0436 53.2997 9.68939 53.4929 9.22727C53.6861 8.76515 53.7827 8.21212 53.7827 7.56818C53.7827 6.93939 53.688 6.38447 53.4986 5.90341C53.3092 5.42235 53.0289 5.04545 52.6577 4.77273C52.2865 4.5 51.8281 4.36364 51.2827 4.36364C50.7145 4.36364 50.241 4.50758 49.8622 4.79545C49.4872 5.08333 49.205 5.4697 49.0156 5.95455C48.83 6.43939 48.7372 6.97727 48.7372 7.56818C48.7372 8.17424 48.8319 8.71023 49.0213 9.17614C49.2145 9.63826 49.4986 10.0019 49.8736 10.267C50.2524 10.5284 50.7221 10.6591 51.2827 10.6591ZM58.8963 6.75V12H57.5554V0.363636H58.8963V4.63636H59.0099C59.2145 4.18561 59.5213 3.82765 59.9304 3.5625C60.3433 3.29356 60.8925 3.15909 61.5781 3.15909C62.1728 3.15909 62.6937 3.27841 63.1406 3.51705C63.5876 3.75189 63.9342 4.11364 64.1804 4.60227C64.4304 5.08712 64.5554 5.70455 64.5554 6.45455V12H63.2145V6.54545C63.2145 5.85227 63.0346 5.31629 62.6747 4.9375C62.3187 4.55492 61.8243 4.36364 61.1918 4.36364C60.7524 4.36364 60.3584 4.45644 60.0099 4.64205C59.6652 4.82765 59.3925 5.09848 59.1918 5.45455C58.9948 5.81061 58.8963 6.24242 58.8963 6.75ZM70.804 3.27273V4.40909H66.2812V3.27273H70.804ZM67.5994 1.18182H68.9403V9.5C68.9403 9.87879 68.9953 10.1629 69.1051 10.3523C69.2188 10.5379 69.3627 10.6629 69.5369 10.7273C69.715 10.7879 69.9025 10.8182 70.0994 10.8182C70.2472 10.8182 70.3684 10.8106 70.4631 10.7955C70.5578 10.7765 70.6335 10.7614 70.6903 10.75L70.9631 11.9545C70.8722 11.9886 70.7453 12.0227 70.5824 12.0568C70.4195 12.0947 70.2131 12.1136 69.9631 12.1136C69.5843 12.1136 69.2131 12.0322 68.8494 11.8693C68.4896 11.7064 68.1903 11.4583 67.9517 11.125C67.7169 10.7917 67.5994 10.3712 67.5994 9.86364V1.18182ZM77.5028 12V0.363636H78.9119V10.75H84.321V12H77.5028ZM89.8665 12.1818C89.0786 12.1818 88.3873 11.9943 87.7926 11.6193C87.2017 11.2443 86.7396 10.7197 86.4062 10.0455C86.0767 9.37121 85.9119 8.58333 85.9119 7.68182C85.9119 6.77273 86.0767 5.97917 86.4062 5.30114C86.7396 4.62311 87.2017 4.09659 87.7926 3.72159C88.3873 3.34659 89.0786 3.15909 89.8665 3.15909C90.6544 3.15909 91.3438 3.34659 91.9347 3.72159C92.5294 4.09659 92.9915 4.62311 93.321 5.30114C93.6544 5.97917 93.821 6.77273 93.821 7.68182C93.821 8.58333 93.6544 9.37121 93.321 10.0455C92.9915 10.7197 92.5294 11.2443 91.9347 11.6193C91.3438 11.9943 90.6544 12.1818 89.8665 12.1818ZM89.8665 10.9773C90.465 10.9773 90.9574 10.8239 91.3438 10.517C91.7301 10.2102 92.0161 9.80682 92.2017 9.30682C92.3873 8.80682 92.4801 8.26515 92.4801 7.68182C92.4801 7.09848 92.3873 6.55492 92.2017 6.05114C92.0161 5.54735 91.7301 5.14015 91.3438 4.82955C90.9574 4.51894 90.465 4.36364 89.8665 4.36364C89.268 4.36364 88.7756 4.51894 88.3892 4.82955C88.0028 5.14015 87.7169 5.54735 87.5312 6.05114C87.3456 6.55492 87.2528 7.09848 87.2528 7.68182C87.2528 8.26515 87.3456 8.80682 87.5312 9.30682C87.7169 9.80682 88.0028 10.2102 88.3892 10.517C88.7756 10.8239 89.268 10.9773 89.8665 10.9773ZM95.8679 12V3.27273H97.1634V4.59091H97.2543C97.4134 4.15909 97.7012 3.80871 98.1179 3.53977C98.5346 3.27083 99.0043 3.13636 99.527 3.13636C99.6255 3.13636 99.7486 3.13826 99.8963 3.14205C100.044 3.14583 100.156 3.15152 100.232 3.15909V4.52273C100.186 4.51136 100.082 4.49432 99.919 4.47159C99.7599 4.44508 99.5914 4.43182 99.4134 4.43182C98.9891 4.43182 98.6103 4.52083 98.277 4.69886C97.9474 4.87311 97.6861 5.11553 97.4929 5.42614C97.3035 5.73295 97.2088 6.08333 97.2088 6.47727V12H95.8679ZM105.214 12.1818C104.374 12.1818 103.648 11.9962 103.038 11.625C102.432 11.25 101.964 10.7273 101.635 10.0568C101.309 9.38258 101.146 8.59848 101.146 7.70455C101.146 6.81061 101.309 6.02273 101.635 5.34091C101.964 4.6553 102.423 4.12121 103.01 3.73864C103.601 3.35227 104.29 3.15909 105.078 3.15909C105.533 3.15909 105.982 3.23485 106.425 3.38636C106.868 3.53788 107.271 3.78409 107.635 4.125C107.999 4.46212 108.288 4.90909 108.504 5.46591C108.72 6.02273 108.828 6.70833 108.828 7.52273V8.09091H102.101V6.93182H107.464C107.464 6.43939 107.366 6 107.169 5.61364C106.976 5.22727 106.699 4.92235 106.339 4.69886C105.983 4.47538 105.563 4.36364 105.078 4.36364C104.544 4.36364 104.082 4.49621 103.692 4.76136C103.305 5.02273 103.008 5.36364 102.8 5.78409C102.591 6.20455 102.487 6.6553 102.487 7.13636V7.90909C102.487 8.56818 102.601 9.12689 102.828 9.58523C103.059 10.0398 103.379 10.3864 103.788 10.625C104.197 10.8598 104.673 10.9773 105.214 10.9773C105.567 10.9773 105.885 10.928 106.169 10.8295C106.457 10.7273 106.705 10.5758 106.913 10.375C107.122 10.1705 107.283 9.91667 107.396 9.61364L108.692 9.97727C108.555 10.4167 108.326 10.803 108.004 11.1364C107.682 11.4659 107.285 11.7235 106.811 11.9091C106.338 12.0909 105.805 12.1818 105.214 12.1818ZM110.868 12V3.27273H112.163V4.63636H112.277C112.459 4.17045 112.752 3.80871 113.158 3.55114C113.563 3.28977 114.05 3.15909 114.618 3.15909C115.194 3.15909 115.673 3.28977 116.055 3.55114C116.442 3.80871 116.743 4.17045 116.959 4.63636H117.05C117.273 4.18561 117.608 3.82765 118.055 3.5625C118.502 3.29356 119.038 3.15909 119.663 3.15909C120.444 3.15909 121.082 3.40341 121.578 3.89205C122.074 4.37689 122.322 5.13258 122.322 6.15909V12H120.982V6.15909C120.982 5.51515 120.805 5.05492 120.453 4.77841C120.101 4.50189 119.686 4.36364 119.209 4.36364C118.595 4.36364 118.12 4.54924 117.783 4.92045C117.446 5.28788 117.277 5.75379 117.277 6.31818V12H115.913V6.02273C115.913 5.52652 115.752 5.12689 115.43 4.82386C115.108 4.51705 114.694 4.36364 114.186 4.36364C113.838 4.36364 113.512 4.45644 113.209 4.64205C112.91 4.82765 112.667 5.08523 112.482 5.41477C112.3 5.74053 112.209 6.11742 112.209 6.54545V12H110.868ZM129.274 12V3.27273H130.615V12H129.274ZM129.956 1.81818C129.695 1.81818 129.469 1.72917 129.28 1.55114C129.094 1.37311 129.001 1.15909 129.001 0.909091C129.001 0.659091 129.094 0.445076 129.28 0.267045C129.469 0.089015 129.695 0 129.956 0C130.217 0 130.441 0.089015 130.626 0.267045C130.816 0.445076 130.911 0.659091 130.911 0.909091C130.911 1.15909 130.816 1.37311 130.626 1.55114C130.441 1.72917 130.217 1.81818 129.956 1.81818ZM133.071 15.2727V3.27273H134.366V4.65909H134.526C134.624 4.50758 134.76 4.31439 134.935 4.07955C135.113 3.84091 135.366 3.62879 135.696 3.44318C136.029 3.25379 136.48 3.15909 137.048 3.15909C137.783 3.15909 138.431 3.3428 138.991 3.71023C139.552 4.07765 139.99 4.59848 140.304 5.27273C140.618 5.94697 140.776 6.74242 140.776 7.65909C140.776 8.58333 140.618 9.38447 140.304 10.0625C139.99 10.7367 139.554 11.2595 138.997 11.6307C138.44 11.9981 137.798 12.1818 137.071 12.1818C136.51 12.1818 136.062 12.089 135.724 11.9034C135.387 11.714 135.128 11.5 134.946 11.2614C134.764 11.0189 134.624 10.8182 134.526 10.6591H134.412V15.2727H133.071ZM134.389 7.63636C134.389 8.29545 134.486 8.87689 134.679 9.38068C134.872 9.88068 135.154 10.2727 135.526 10.5568C135.897 10.8371 136.351 10.9773 136.889 10.9773C137.45 10.9773 137.918 10.8295 138.293 10.5341C138.671 10.2348 138.955 9.83333 139.145 9.32955C139.338 8.82197 139.435 8.25758 139.435 7.63636C139.435 7.02273 139.34 6.4697 139.151 5.97727C138.965 5.48106 138.683 5.08902 138.304 4.80114C137.929 4.50947 137.457 4.36364 136.889 4.36364C136.344 4.36364 135.885 4.50189 135.514 4.77841C135.143 5.05114 134.863 5.43371 134.673 5.92614C134.484 6.41477 134.389 6.98485 134.389 7.63636ZM149.003 5.22727L147.798 5.56818C147.723 5.36742 147.611 5.17235 147.463 4.98295C147.319 4.78977 147.122 4.63068 146.872 4.50568C146.622 4.38068 146.302 4.31818 145.912 4.31818C145.378 4.31818 144.933 4.44129 144.577 4.6875C144.224 4.92992 144.048 5.23864 144.048 5.61364C144.048 5.94697 144.17 6.21023 144.412 6.40341C144.654 6.59659 145.033 6.75758 145.548 6.88636L146.844 7.20455C147.624 7.39394 148.205 7.68371 148.588 8.07386C148.971 8.46023 149.162 8.95833 149.162 9.56818C149.162 10.0682 149.018 10.5152 148.73 10.9091C148.446 11.303 148.048 11.6136 147.537 11.8409C147.026 12.0682 146.431 12.1818 145.753 12.1818C144.863 12.1818 144.126 11.9886 143.543 11.6023C142.959 11.2159 142.59 10.6515 142.435 9.90909L143.707 9.59091C143.829 10.0606 144.058 10.4129 144.395 10.6477C144.736 10.8826 145.181 11 145.73 11C146.355 11 146.851 10.8674 147.219 10.6023C147.59 10.3333 147.776 10.0114 147.776 9.63636C147.776 9.33333 147.67 9.07955 147.457 8.875C147.245 8.66667 146.92 8.51136 146.48 8.40909L145.026 8.06818C144.226 7.87879 143.639 7.58523 143.264 7.1875C142.893 6.78598 142.707 6.28409 142.707 5.68182C142.707 5.18939 142.846 4.75379 143.122 4.375C143.402 3.99621 143.783 3.69886 144.264 3.48295C144.749 3.26705 145.298 3.15909 145.912 3.15909C146.776 3.15909 147.454 3.34848 147.946 3.72727C148.442 4.10606 148.795 4.60606 149.003 5.22727ZM156.68 8.43182V3.27273H158.021V12H156.68V10.5227H156.589C156.385 10.9659 156.067 11.3428 155.635 11.6534C155.203 11.9602 154.658 12.1136 153.999 12.1136C153.453 12.1136 152.968 11.9943 152.544 11.7557C152.12 11.5133 151.786 11.1496 151.544 10.6648C151.302 10.1761 151.18 9.56061 151.18 8.81818V3.27273H152.521V8.72727C152.521 9.36364 152.699 9.87121 153.055 10.25C153.415 10.6288 153.874 10.8182 154.43 10.8182C154.764 10.8182 155.103 10.733 155.447 10.5625C155.796 10.392 156.088 10.1307 156.322 9.77841C156.561 9.42614 156.68 8.97727 156.68 8.43182ZM160.477 12V3.27273H161.773V4.63636H161.886C162.068 4.17045 162.362 3.80871 162.767 3.55114C163.172 3.28977 163.659 3.15909 164.227 3.15909C164.803 3.15909 165.282 3.28977 165.665 3.55114C166.051 3.80871 166.352 4.17045 166.568 4.63636H166.659C166.883 4.18561 167.218 3.82765 167.665 3.5625C168.112 3.29356 168.648 3.15909 169.273 3.15909C170.053 3.15909 170.691 3.40341 171.188 3.89205C171.684 4.37689 171.932 5.13258 171.932 6.15909V12H170.591V6.15909C170.591 5.51515 170.415 5.05492 170.062 4.77841C169.71 4.50189 169.295 4.36364 168.818 4.36364C168.205 4.36364 167.729 4.54924 167.392 4.92045C167.055 5.28788 166.886 5.75379 166.886 6.31818V12H165.523V6.02273C165.523 5.52652 165.362 5.12689 165.04 4.82386C164.718 4.51705 164.303 4.36364 163.795 4.36364C163.447 4.36364 163.121 4.45644 162.818 4.64205C162.519 4.82765 162.277 5.08523 162.091 5.41477C161.909 5.74053 161.818 6.11742 161.818 6.54545V12H160.477ZM182.179 12.1818C181.452 12.1818 180.81 11.9981 180.253 11.6307C179.696 11.2595 179.26 10.7367 178.946 10.0625C178.632 9.38447 178.474 8.58333 178.474 7.65909C178.474 6.74242 178.632 5.94697 178.946 5.27273C179.26 4.59848 179.698 4.07765 180.259 3.71023C180.819 3.3428 181.467 3.15909 182.202 3.15909C182.77 3.15909 183.219 3.25379 183.548 3.44318C183.882 3.62879 184.135 3.84091 184.31 4.07955C184.488 4.31439 184.626 4.50758 184.724 4.65909H184.838V0.363636H186.179V12H184.884V10.6591H184.724C184.626 10.8182 184.486 11.0189 184.304 11.2614C184.122 11.5 183.863 11.714 183.526 11.9034C183.188 12.089 182.74 12.1818 182.179 12.1818ZM182.361 10.9773C182.899 10.9773 183.353 10.8371 183.724 10.5568C184.096 10.2727 184.378 9.88068 184.571 9.38068C184.764 8.87689 184.861 8.29545 184.861 7.63636C184.861 6.98485 184.766 6.41477 184.577 5.92614C184.387 5.43371 184.107 5.05114 183.736 4.77841C183.365 4.50189 182.906 4.36364 182.361 4.36364C181.793 4.36364 181.319 4.50947 180.94 4.80114C180.565 5.08902 180.283 5.48106 180.094 5.97727C179.908 6.4697 179.815 7.02273 179.815 7.63636C179.815 8.25758 179.91 8.82197 180.099 9.32955C180.293 9.83333 180.577 10.2348 180.952 10.5341C181.33 10.8295 181.8 10.9773 182.361 10.9773ZM192.366 12.1818C191.579 12.1818 190.887 11.9943 190.293 11.6193C189.702 11.2443 189.24 10.7197 188.906 10.0455C188.577 9.37121 188.412 8.58333 188.412 7.68182C188.412 6.77273 188.577 5.97917 188.906 5.30114C189.24 4.62311 189.702 4.09659 190.293 3.72159C190.887 3.34659 191.579 3.15909 192.366 3.15909C193.154 3.15909 193.844 3.34659 194.435 3.72159C195.029 4.09659 195.491 4.62311 195.821 5.30114C196.154 5.97917 196.321 6.77273 196.321 7.68182C196.321 8.58333 196.154 9.37121 195.821 10.0455C195.491 10.7197 195.029 11.2443 194.435 11.6193C193.844 11.9943 193.154 12.1818 192.366 12.1818ZM192.366 10.9773C192.965 10.9773 193.457 10.8239 193.844 10.517C194.23 10.2102 194.516 9.80682 194.702 9.30682C194.887 8.80682 194.98 8.26515 194.98 7.68182C194.98 7.09848 194.887 6.55492 194.702 6.05114C194.516 5.54735 194.23 5.14015 193.844 4.82955C193.457 4.51894 192.965 4.36364 192.366 4.36364C191.768 4.36364 191.276 4.51894 190.889 4.82955C190.503 5.14015 190.217 5.54735 190.031 6.05114C189.846 6.55492 189.753 7.09848 189.753 7.68182C189.753 8.26515 189.846 8.80682 190.031 9.30682C190.217 9.80682 190.503 10.2102 190.889 10.517C191.276 10.8239 191.768 10.9773 192.366 10.9773ZM199.709 0.363636V12H198.368V0.363636H199.709ZM205.71 12.1818C204.922 12.1818 204.231 11.9943 203.636 11.6193C203.045 11.2443 202.583 10.7197 202.25 10.0455C201.92 9.37121 201.756 8.58333 201.756 7.68182C201.756 6.77273 201.92 5.97917 202.25 5.30114C202.583 4.62311 203.045 4.09659 203.636 3.72159C204.231 3.34659 204.922 3.15909 205.71 3.15909C206.498 3.15909 207.188 3.34659 207.778 3.72159C208.373 4.09659 208.835 4.62311 209.165 5.30114C209.498 5.97917 209.665 6.77273 209.665 7.68182C209.665 8.58333 209.498 9.37121 209.165 10.0455C208.835 10.7197 208.373 11.2443 207.778 11.6193C207.188 11.9943 206.498 12.1818 205.71 12.1818ZM205.71 10.9773C206.309 10.9773 206.801 10.8239 207.188 10.517C207.574 10.2102 207.86 9.80682 208.045 9.30682C208.231 8.80682 208.324 8.26515 208.324 7.68182C208.324 7.09848 208.231 6.55492 208.045 6.05114C207.86 5.54735 207.574 5.14015 207.188 4.82955C206.801 4.51894 206.309 4.36364 205.71 4.36364C205.112 4.36364 204.619 4.51894 204.233 4.82955C203.847 5.14015 203.561 5.54735 203.375 6.05114C203.189 6.55492 203.097 7.09848 203.097 7.68182C203.097 8.26515 203.189 8.80682 203.375 9.30682C203.561 9.80682 203.847 10.2102 204.233 10.517C204.619 10.8239 205.112 10.9773 205.71 10.9773ZM211.712 12V3.27273H213.007V4.59091H213.098C213.257 4.15909 213.545 3.80871 213.962 3.53977C214.378 3.27083 214.848 3.13636 215.371 3.13636C215.469 3.13636 215.592 3.13826 215.74 3.14205C215.888 3.14583 216 3.15152 216.075 3.15909V4.52273C216.03 4.51136 215.926 4.49432 215.763 4.47159C215.604 4.44508 215.435 4.43182 215.257 4.43182C214.833 4.43182 214.454 4.52083 214.121 4.69886C213.791 4.87311 213.53 5.11553 213.337 5.42614C213.147 5.73295 213.053 6.08333 213.053 6.47727V12H211.712ZM228.347 5.22727L227.142 5.56818C227.066 5.36742 226.955 5.17235 226.807 4.98295C226.663 4.78977 226.466 4.63068 226.216 4.50568C225.966 4.38068 225.646 4.31818 225.256 4.31818C224.722 4.31818 224.277 4.44129 223.92 4.6875C223.568 4.92992 223.392 5.23864 223.392 5.61364C223.392 5.94697 223.513 6.21023 223.756 6.40341C223.998 6.59659 224.377 6.75758 224.892 6.88636L226.188 7.20455C226.968 7.39394 227.549 7.68371 227.932 8.07386C228.314 8.46023 228.506 8.95833 228.506 9.56818C228.506 10.0682 228.362 10.5152 228.074 10.9091C227.79 11.303 227.392 11.6136 226.881 11.8409C226.369 12.0682 225.775 12.1818 225.097 12.1818C224.206 12.1818 223.47 11.9886 222.886 11.6023C222.303 11.2159 221.934 10.6515 221.778 9.90909L223.051 9.59091C223.172 10.0606 223.402 10.4129 223.739 10.6477C224.08 10.8826 224.525 11 225.074 11C225.699 11 226.195 10.8674 226.562 10.6023C226.934 10.3333 227.119 10.0114 227.119 9.63636C227.119 9.33333 227.013 9.07955 226.801 8.875C226.589 8.66667 226.263 8.51136 225.824 8.40909L224.369 8.06818C223.57 7.87879 222.983 7.58523 222.608 7.1875C222.237 6.78598 222.051 6.28409 222.051 5.68182C222.051 5.18939 222.189 4.75379 222.466 4.375C222.746 3.99621 223.127 3.69886 223.608 3.48295C224.093 3.26705 224.642 3.15909 225.256 3.15909C226.119 3.15909 226.797 3.34848 227.29 3.72727C227.786 4.10606 228.138 4.60606 228.347 5.22727ZM230.524 12V3.27273H231.865V12H230.524ZM231.206 1.81818C230.945 1.81818 230.719 1.72917 230.53 1.55114C230.344 1.37311 230.251 1.15909 230.251 0.909091C230.251 0.659091 230.344 0.445076 230.53 0.267045C230.719 0.089015 230.945 0 231.206 0C231.467 0 231.691 0.089015 231.876 0.267045C232.066 0.445076 232.161 0.659091 232.161 0.909091C232.161 1.15909 232.066 1.37311 231.876 1.55114C231.691 1.72917 231.467 1.81818 231.206 1.81818ZM238.116 3.27273V4.40909H233.594V3.27273H238.116ZM234.912 1.18182H236.253V9.5C236.253 9.87879 236.308 10.1629 236.418 10.3523C236.531 10.5379 236.675 10.6629 236.849 10.7273C237.027 10.7879 237.215 10.8182 237.412 10.8182C237.56 10.8182 237.681 10.8106 237.776 10.7955C237.87 10.7765 237.946 10.7614 238.003 10.75L238.276 11.9545C238.185 11.9886 238.058 12.0227 237.895 12.0568C237.732 12.0947 237.526 12.1136 237.276 12.1136C236.897 12.1136 236.526 12.0322 236.162 11.8693C235.802 11.7064 235.503 11.4583 235.264 11.125C235.029 10.7917 234.912 10.3712 234.912 9.86364V1.18182ZM247.202 12.2045C246.649 12.2045 246.147 12.1004 245.696 11.892C245.245 11.6799 244.887 11.375 244.622 10.9773C244.357 10.5758 244.224 10.0909 244.224 9.52273C244.224 9.02273 244.323 8.61742 244.52 8.30682C244.717 7.99242 244.98 7.74621 245.31 7.56818C245.639 7.39015 246.003 7.25758 246.401 7.17045C246.802 7.07955 247.205 7.00758 247.611 6.95455C248.141 6.88636 248.571 6.83523 248.901 6.80114C249.234 6.76326 249.476 6.70076 249.628 6.61364C249.783 6.52652 249.861 6.375 249.861 6.15909V6.11364C249.861 5.55303 249.707 5.11742 249.401 4.80682C249.098 4.49621 248.637 4.34091 248.02 4.34091C247.38 4.34091 246.878 4.48106 246.514 4.76136C246.151 5.04167 245.895 5.34091 245.747 5.65909L244.474 5.20455C244.702 4.67424 245.005 4.26136 245.384 3.96591C245.766 3.66667 246.183 3.45833 246.634 3.34091C247.088 3.2197 247.535 3.15909 247.974 3.15909C248.255 3.15909 248.577 3.19318 248.94 3.26136C249.308 3.32576 249.662 3.46023 250.003 3.66477C250.348 3.86932 250.634 4.17803 250.861 4.59091C251.088 5.00379 251.202 5.55682 251.202 6.25V12H249.861V10.8182H249.793C249.702 11.0076 249.55 11.2102 249.338 11.4261C249.126 11.642 248.844 11.8258 248.491 11.9773C248.139 12.1288 247.709 12.2045 247.202 12.2045ZM247.406 11C247.937 11 248.384 10.8958 248.747 10.6875C249.115 10.4792 249.391 10.2102 249.577 9.88068C249.766 9.55114 249.861 9.20455 249.861 8.84091V7.61364C249.804 7.68182 249.679 7.74432 249.486 7.80114C249.296 7.85417 249.077 7.90151 248.827 7.94318C248.58 7.98106 248.34 8.01515 248.105 8.04545C247.874 8.07197 247.687 8.0947 247.543 8.11364C247.194 8.15909 246.868 8.23295 246.565 8.33523C246.266 8.43371 246.024 8.58333 245.838 8.78409C245.656 8.98106 245.565 9.25 245.565 9.59091C245.565 10.0568 245.738 10.4091 246.082 10.6477C246.431 10.8826 246.872 11 247.406 11ZM253.649 12V3.27273H254.945V4.63636H255.058C255.24 4.17045 255.534 3.80871 255.939 3.55114C256.344 3.28977 256.831 3.15909 257.399 3.15909C257.975 3.15909 258.454 3.28977 258.837 3.55114C259.223 3.80871 259.524 4.17045 259.74 4.63636H259.831C260.054 4.18561 260.39 3.82765 260.837 3.5625C261.284 3.29356 261.82 3.15909 262.445 3.15909C263.225 3.15909 263.863 3.40341 264.359 3.89205C264.856 4.37689 265.104 5.13258 265.104 6.15909V12H263.763V6.15909C263.763 5.51515 263.587 5.05492 263.234 4.77841C262.882 4.50189 262.467 4.36364 261.99 4.36364C261.376 4.36364 260.901 4.54924 260.564 4.92045C260.227 5.28788 260.058 5.75379 260.058 6.31818V12H258.695V6.02273C258.695 5.52652 258.534 5.12689 258.212 4.82386C257.89 4.51705 257.475 4.36364 256.967 4.36364C256.619 4.36364 256.293 4.45644 255.99 4.64205C255.691 4.82765 255.448 5.08523 255.263 5.41477C255.081 5.74053 254.99 6.11742 254.99 6.54545V12H253.649ZM271.214 12.1818C270.374 12.1818 269.648 11.9962 269.038 11.625C268.432 11.25 267.964 10.7273 267.635 10.0568C267.309 9.38258 267.146 8.59848 267.146 7.70455C267.146 6.81061 267.309 6.02273 267.635 5.34091C267.964 4.6553 268.423 4.12121 269.01 3.73864C269.601 3.35227 270.29 3.15909 271.078 3.15909C271.533 3.15909 271.982 3.23485 272.425 3.38636C272.868 3.53788 273.271 3.78409 273.635 4.125C273.999 4.46212 274.288 4.90909 274.504 5.46591C274.72 6.02273 274.828 6.70833 274.828 7.52273V8.09091H268.101V6.93182H273.464C273.464 6.43939 273.366 6 273.169 5.61364C272.976 5.22727 272.699 4.92235 272.339 4.69886C271.983 4.47538 271.563 4.36364 271.078 4.36364C270.544 4.36364 270.082 4.49621 269.692 4.76136C269.305 5.02273 269.008 5.36364 268.8 5.78409C268.591 6.20455 268.487 6.6553 268.487 7.13636V7.90909C268.487 8.56818 268.601 9.12689 268.828 9.58523C269.059 10.0398 269.379 10.3864 269.788 10.625C270.197 10.8598 270.673 10.9773 271.214 10.9773C271.567 10.9773 271.885 10.928 272.169 10.8295C272.457 10.7273 272.705 10.5758 272.913 10.375C273.122 10.1705 273.283 9.91667 273.396 9.61364L274.692 9.97727C274.555 10.4167 274.326 10.803 274.004 11.1364C273.682 11.4659 273.285 11.7235 272.811 11.9091C272.338 12.0909 271.805 12.1818 271.214 12.1818ZM280.663 3.27273V4.40909H276.141V3.27273H280.663ZM277.459 1.18182H278.8V9.5C278.8 9.87879 278.855 10.1629 278.964 10.3523C279.078 10.5379 279.222 10.6629 279.396 10.7273C279.574 10.7879 279.762 10.8182 279.959 10.8182C280.107 10.8182 280.228 10.8106 280.322 10.7955C280.417 10.7765 280.493 10.7614 280.55 10.75L280.822 11.9545C280.732 11.9886 280.605 12.0227 280.442 12.0568C280.279 12.0947 280.072 12.1136 279.822 12.1136C279.444 12.1136 279.072 12.0322 278.709 11.8693C278.349 11.7064 278.05 11.4583 277.811 11.125C277.576 10.7917 277.459 10.3712 277.459 9.86364V1.18182Z" fill="white"/>
</svg>
